<svg width="1280" height="832" viewBox="0 0 1280 832" fill="none" xmlns="http://www.w3.org/2000/svg">
<rect width="1280" height="832" fill="#F5F5F5"/>
<g clip-path="url(#clip0_0_1)">
<rect width="1280" height="832" fill="white"/>
<circle cx="107" cy="79" r="69" fill="#56F6E3"/>
<circle cx="269" cy="148" r="69" fill="#56F6E3"/>
<circle cx="131" cy="255" r="69" fill="#56F6E3"/>
<circle cx="1059.24" cy="693.109" r="69" transform="rotate(-35.4898 1059.24 693.109)" fill="#56F6E3"/>
<circle cx="1231.2" cy="655.24" r="69" transform="rotate(-35.4898 1231.2 655.24)" fill="#56F6E3"/>
<circle cx="1180.96" cy="822.478" r="69" transform="rotate(-35.4898 1180.96 822.478)" fill="#56F6E3"/>
<path d="M-132.72 793.347C-145.069 672.131 -56.8145 563.855 64.4017 551.506C185.618 539.158 306.242 748.628 306.242 748.628L109.12 990.469C109.12 990.469 -120.372 914.563 -132.72 793.347Z" fill="#878BFC"/>
<path d="M1059.28 74.3471C1046.93 -46.8691 1135.19 -155.145 1256.4 -167.494C1377.62 -179.842 1498.24 29.6284 1498.24 29.6284L1301.12 271.469C1301.12 271.469 1071.63 195.563 1059.28 74.3471Z" fill="#878BFC"/>
<g filter="url(#filter0_d_0_1)">
<path d="M465.12 116C464.827 116 464.587 115.907 464.4 115.72C464.213 115.533 464.12 115.307 464.12 115.04V89C464.12 88.7067 464.213 88.4667 464.4 88.28C464.587 88.0933 464.827 88 465.12 88H468.28C468.653 88 468.933 88.1067 469.12 88.32C469.307 88.5067 469.427 88.6533 469.48 88.76L477.2 103.16L485 88.76C485.053 88.6533 485.173 88.5067 485.36 88.32C485.547 88.1067 485.827 88 486.2 88H489.32C489.613 88 489.853 88.0933 490.04 88.28C490.227 88.4667 490.32 88.7067 490.32 89V115.04C490.32 115.307 490.227 115.533 490.04 115.72C489.853 115.907 489.613 116 489.32 116H485.96C485.667 116 485.427 115.907 485.24 115.72C485.08 115.533 485 115.307 485 115.04V97.72L479.4 108.4C479.267 108.64 479.093 108.853 478.88 109.04C478.667 109.2 478.387 109.28 478.04 109.28H476.4C476.027 109.28 475.733 109.2 475.52 109.04C475.333 108.853 475.173 108.64 475.04 108.4L469.44 97.72V115.04C469.44 115.307 469.347 115.533 469.16 115.72C468.973 115.907 468.747 116 468.48 116H465.12ZM505.022 116.4C502.062 116.4 499.715 115.547 497.982 113.84C496.249 112.133 495.315 109.707 495.182 106.56C495.155 106.293 495.142 105.96 495.142 105.56C495.142 105.133 495.155 104.8 495.182 104.56C495.289 102.56 495.742 100.827 496.542 99.36C497.369 97.8933 498.502 96.7733 499.942 96C501.382 95.2 503.075 94.8 505.022 94.8C507.182 94.8 508.995 95.2533 510.462 96.16C511.929 97.04 513.035 98.28 513.782 99.88C514.529 101.453 514.902 103.28 514.902 105.36V106.2C514.902 106.467 514.809 106.693 514.622 106.88C514.435 107.067 514.195 107.16 513.902 107.16H500.622C500.622 107.16 500.622 107.2 500.622 107.28C500.622 107.36 500.622 107.427 500.622 107.48C500.649 108.413 500.822 109.28 501.142 110.08C501.489 110.853 501.982 111.48 502.622 111.96C503.289 112.44 504.075 112.68 504.982 112.68C505.729 112.68 506.355 112.573 506.862 112.36C507.369 112.12 507.782 111.853 508.102 111.56C508.422 111.267 508.649 111.027 508.782 110.84C509.022 110.52 509.209 110.333 509.342 110.28C509.502 110.2 509.729 110.16 510.022 110.16H513.462C513.729 110.16 513.942 110.24 514.102 110.4C514.289 110.56 514.369 110.76 514.342 111C514.315 111.427 514.089 111.947 513.662 112.56C513.262 113.173 512.675 113.773 511.902 114.36C511.129 114.947 510.155 115.44 508.982 115.84C507.835 116.213 506.515 116.4 505.022 116.4ZM500.622 103.8H509.462V103.68C509.462 102.64 509.289 101.733 508.942 100.96C508.595 100.187 508.089 99.5733 507.422 99.12C506.755 98.6667 505.955 98.44 505.022 98.44C504.089 98.44 503.289 98.6667 502.622 99.12C501.955 99.5733 501.449 100.187 501.102 100.96C500.782 101.733 500.622 102.64 500.622 103.68V103.8ZM526.868 116.4C525.481 116.4 524.254 116.173 523.188 115.72C522.148 115.24 521.281 114.573 520.588 113.72C519.894 112.867 519.361 111.867 518.988 110.72C518.614 109.547 518.401 108.267 518.348 106.88C518.321 106.4 518.308 105.973 518.308 105.6C518.308 105.2 518.321 104.76 518.348 104.28C518.401 102.947 518.601 101.707 518.948 100.56C519.321 99.4133 519.854 98.4133 520.548 97.56C521.268 96.68 522.148 96 523.188 95.52C524.254 95.04 525.481 94.8 526.868 94.8C528.308 94.8 529.521 95.0533 530.508 95.56C531.521 96.04 532.361 96.6667 533.028 97.44V88.56C533.028 88.2933 533.108 88.0667 533.268 87.88C533.454 87.6933 533.694 87.6 533.988 87.6H537.388C537.654 87.6 537.881 87.6933 538.068 87.88C538.254 88.0667 538.348 88.2933 538.348 88.56V115.04C538.348 115.307 538.254 115.533 538.068 115.72C537.881 115.907 537.654 116 537.388 116H534.228C533.934 116 533.694 115.907 533.508 115.72C533.348 115.533 533.268 115.307 533.268 115.04V113.56C532.601 114.387 531.748 115.067 530.708 115.6C529.694 116.133 528.414 116.4 526.868 116.4ZM528.348 112.12C529.468 112.12 530.361 111.867 531.028 111.36C531.694 110.853 532.188 110.213 532.508 109.44C532.828 108.64 533.001 107.827 533.028 107C533.054 106.52 533.068 106.013 533.068 105.48C533.068 104.92 533.054 104.4 533.028 103.92C533.001 103.12 532.814 102.36 532.468 101.64C532.121 100.893 531.614 100.28 530.948 99.8C530.281 99.32 529.414 99.08 528.348 99.08C527.228 99.08 526.334 99.3333 525.668 99.84C525.028 100.32 524.561 100.96 524.268 101.76C523.974 102.56 523.801 103.44 523.748 104.4C523.721 105.2 523.721 106 523.748 106.8C523.801 107.76 523.974 108.64 524.268 109.44C524.561 110.24 525.028 110.893 525.668 111.4C526.334 111.88 527.228 112.12 528.348 112.12ZM544.639 116C544.372 116 544.146 115.907 543.959 115.72C543.772 115.533 543.679 115.307 543.679 115.04V96.16C543.679 95.8933 543.772 95.6667 543.959 95.48C544.146 95.2933 544.372 95.2 544.639 95.2H547.959C548.252 95.2 548.479 95.2933 548.639 95.48C548.826 95.6667 548.919 95.8933 548.919 96.16V115.04C548.919 115.307 548.826 115.533 548.639 115.72C548.479 115.907 548.252 116 547.959 116H544.639ZM544.479 91.76C544.186 91.76 543.946 91.68 543.759 91.52C543.599 91.3333 543.519 91.0933 543.519 90.8V87.92C543.519 87.6533 543.599 87.4267 543.759 87.24C543.946 87.0533 544.186 86.96 544.479 86.96H548.119C548.412 86.96 548.652 87.0533 548.839 87.24C549.026 87.4267 549.119 87.6533 549.119 87.92V90.8C549.119 91.0933 549.026 91.3333 548.839 91.52C548.652 91.68 548.412 91.76 548.119 91.76H544.479ZM563.226 116.4C561.306 116.4 559.613 116.04 558.146 115.32C556.706 114.6 555.573 113.56 554.746 112.2C553.946 110.813 553.506 109.147 553.426 107.2C553.399 106.8 553.386 106.28 553.386 105.64C553.386 104.973 553.399 104.427 553.426 104C553.506 102.053 553.946 100.4 554.746 99.04C555.573 97.6533 556.706 96.6 558.146 95.88C559.613 95.16 561.306 94.8 563.226 94.8C564.933 94.8 566.386 95.04 567.586 95.52C568.786 96 569.773 96.6 570.546 97.32C571.319 98.04 571.893 98.8 572.266 99.6C572.666 100.373 572.879 101.08 572.906 101.72C572.933 102.013 572.839 102.253 572.626 102.44C572.439 102.6 572.213 102.68 571.946 102.68H568.426C568.159 102.68 567.946 102.613 567.786 102.48C567.653 102.347 567.519 102.147 567.386 101.88C566.986 100.813 566.453 100.067 565.786 99.64C565.146 99.1867 564.319 98.96 563.306 98.96C561.973 98.96 560.906 99.3867 560.106 100.24C559.333 101.067 558.919 102.387 558.866 104.2C558.813 105.213 558.813 106.147 558.866 107C558.919 108.84 559.333 110.173 560.106 111C560.906 111.827 561.973 112.24 563.306 112.24C564.346 112.24 565.186 112.027 565.826 111.6C566.466 111.147 566.986 110.387 567.386 109.32C567.519 109.053 567.653 108.853 567.786 108.72C567.946 108.587 568.159 108.52 568.426 108.52H571.946C572.213 108.52 572.439 108.613 572.626 108.8C572.839 108.96 572.933 109.187 572.906 109.48C572.879 109.96 572.746 110.507 572.506 111.12C572.293 111.707 571.933 112.32 571.426 112.96C570.946 113.573 570.333 114.147 569.586 114.68C568.839 115.187 567.933 115.6 566.866 115.92C565.826 116.24 564.613 116.4 563.226 116.4ZM583.118 116.4C581.731 116.4 580.478 116.133 579.358 115.6C578.238 115.04 577.344 114.307 576.678 113.4C576.038 112.467 575.718 111.427 575.718 110.28C575.718 108.413 576.464 106.933 577.958 105.84C579.478 104.72 581.478 103.973 583.958 103.6L589.438 102.8V101.96C589.438 100.84 589.158 99.9733 588.598 99.36C588.038 98.7467 587.078 98.44 585.718 98.44C584.758 98.44 583.971 98.64 583.358 99.04C582.771 99.4133 582.331 99.92 582.038 100.56C581.824 100.907 581.518 101.08 581.118 101.08H577.958C577.664 101.08 577.438 101 577.278 100.84C577.144 100.68 577.077 100.467 577.077 100.2C577.104 99.7733 577.278 99.2533 577.598 98.64C577.918 98.0267 578.424 97.44 579.118 96.88C579.811 96.2933 580.704 95.8 581.798 95.4C582.891 95 584.211 94.8 585.758 94.8C587.438 94.8 588.851 95.0133 589.998 95.44C591.171 95.84 592.104 96.3867 592.798 97.08C593.491 97.7733 593.998 98.5867 594.318 99.52C594.638 100.453 594.798 101.44 594.798 102.48V115.04C594.798 115.307 594.704 115.533 594.518 115.72C594.331 115.907 594.104 116 593.838 116H590.598C590.304 116 590.064 115.907 589.878 115.72C589.718 115.533 589.638 115.307 589.638 115.04V113.48C589.291 113.987 588.824 114.467 588.238 114.92C587.651 115.347 586.931 115.707 586.078 116C585.251 116.267 584.264 116.4 583.118 116.4ZM584.478 112.6C585.411 112.6 586.251 112.4 586.998 112C587.771 111.6 588.371 110.987 588.798 110.16C589.251 109.307 589.478 108.24 589.478 106.96V106.12L585.478 106.76C583.904 107 582.731 107.387 581.958 107.92C581.184 108.453 580.798 109.107 580.798 109.88C580.798 110.467 580.971 110.973 581.318 111.4C581.691 111.8 582.158 112.107 582.718 112.32C583.278 112.507 583.864 112.6 584.478 112.6ZM600.929 116C600.662 116 600.436 115.907 600.249 115.72C600.062 115.533 599.969 115.307 599.969 115.04V88.56C599.969 88.2933 600.062 88.0667 600.249 87.88C600.436 87.6933 600.662 87.6 600.929 87.6H604.249C604.516 87.6 604.742 87.6933 604.929 87.88C605.116 88.0667 605.209 88.2933 605.209 88.56V115.04C605.209 115.307 605.116 115.533 604.929 115.72C604.742 115.907 604.516 116 604.249 116H600.929ZM630.896 116.4C628.522 116.4 626.482 116.013 624.776 115.24C623.069 114.44 621.736 113.227 620.776 111.6C619.816 109.947 619.296 107.893 619.216 105.44C619.189 104.293 619.176 103.16 619.176 102.04C619.176 100.92 619.189 99.7733 619.216 98.6C619.296 96.1733 619.829 94.1467 620.816 92.52C621.802 90.8933 623.149 89.6667 624.856 88.84C626.589 88.0133 628.602 87.6 630.896 87.6C633.189 87.6 635.202 88.0133 636.936 88.84C638.669 89.6667 640.029 90.8933 641.016 92.52C642.002 94.1467 642.536 96.1733 642.616 98.6C642.669 99.7733 642.696 100.92 642.696 102.04C642.696 103.16 642.669 104.293 642.616 105.44C642.536 107.893 642.016 109.947 641.056 111.6C640.096 113.227 638.749 114.44 637.016 115.24C635.309 116.013 633.269 116.4 630.896 116.4ZM630.896 111.8C632.629 111.8 634.042 111.293 635.136 110.28C636.229 109.24 636.816 107.56 636.896 105.24C636.949 104.067 636.976 102.987 636.976 102C636.976 100.987 636.949 99.9067 636.896 98.76C636.842 97.2133 636.549 95.96 636.016 95C635.509 94.0133 634.816 93.3067 633.936 92.88C633.056 92.4267 632.042 92.2 630.896 92.2C629.776 92.2 628.776 92.4267 627.896 92.88C627.016 93.3067 626.309 94.0133 625.776 95C625.269 95.96 624.989 97.2133 624.936 98.76C624.909 99.9067 624.896 100.987 624.896 102C624.896 102.987 624.909 104.067 624.936 105.24C625.016 107.56 625.602 109.24 626.696 110.28C627.789 111.293 629.189 111.8 630.896 111.8ZM648.428 116C648.161 116 647.935 115.907 647.748 115.72C647.561 115.533 647.468 115.307 647.468 115.04V96.2C647.468 95.9067 647.561 95.6667 647.748 95.48C647.935 95.2933 648.161 95.2 648.428 95.2H651.668C651.935 95.2 652.161 95.2933 652.348 95.48C652.561 95.6667 652.668 95.9067 652.668 96.2V97.84C653.281 96.9867 654.068 96.3333 655.028 95.88C656.015 95.4267 657.148 95.2 658.428 95.2H660.068C660.361 95.2 660.588 95.2933 660.748 95.48C660.935 95.6667 661.028 95.8933 661.028 96.16V99.04C661.028 99.3067 660.935 99.5333 660.748 99.72C660.588 99.9067 660.361 100 660.068 100H656.948C655.668 100 654.668 100.36 653.948 101.08C653.255 101.8 652.908 102.787 652.908 104.04V115.04C652.908 115.307 652.815 115.533 652.628 115.72C652.441 115.907 652.201 116 651.908 116H648.428ZM673.235 124.8C671.289 124.8 669.689 124.547 668.435 124.04C667.182 123.533 666.195 122.92 665.475 122.2C664.755 121.48 664.235 120.76 663.915 120.04C663.622 119.347 663.462 118.8 663.435 118.4C663.409 118.133 663.489 117.893 663.675 117.68C663.889 117.493 664.129 117.4 664.395 117.4H667.875C668.142 117.4 668.355 117.453 668.515 117.56C668.675 117.693 668.809 117.92 668.915 118.24C669.075 118.587 669.289 118.96 669.555 119.36C669.822 119.76 670.222 120.093 670.755 120.36C671.315 120.653 672.075 120.8 673.035 120.8C674.049 120.8 674.902 120.653 675.595 120.36C676.289 120.067 676.809 119.573 677.155 118.88C677.529 118.187 677.715 117.227 677.715 116V113.28C677.075 114.053 676.249 114.68 675.235 115.16C674.249 115.64 673.022 115.88 671.555 115.88C670.115 115.88 668.875 115.653 667.835 115.2C666.795 114.72 665.929 114.067 665.235 113.24C664.542 112.387 664.009 111.387 663.635 110.24C663.289 109.093 663.089 107.827 663.035 106.44C663.009 105.72 663.009 105 663.035 104.28C663.089 102.947 663.289 101.707 663.635 100.56C663.982 99.4133 664.502 98.4133 665.195 97.56C665.915 96.68 666.795 96 667.835 95.52C668.875 95.04 670.115 94.8 671.555 94.8C673.075 94.8 674.355 95.0933 675.395 95.68C676.435 96.24 677.289 96.9467 677.955 97.8V96.2C677.955 95.9067 678.049 95.6667 678.235 95.48C678.422 95.2933 678.649 95.2 678.915 95.2H682.155C682.422 95.2 682.649 95.2933 682.835 95.48C683.022 95.6667 683.115 95.9067 683.115 96.2L683.155 115.48C683.155 117.4 682.795 119.053 682.075 120.44C681.355 121.827 680.262 122.893 678.795 123.64C677.355 124.413 675.502 124.8 673.235 124.8ZM673.035 111.64C674.129 111.64 675.009 111.4 675.675 110.92C676.342 110.44 676.835 109.813 677.155 109.04C677.475 108.267 677.662 107.48 677.715 106.68C677.742 106.333 677.755 105.893 677.755 105.36C677.755 104.827 677.742 104.4 677.715 104.08C677.662 103.253 677.475 102.467 677.155 101.72C676.835 100.947 676.342 100.32 675.675 99.84C675.009 99.3333 674.129 99.08 673.035 99.08C671.942 99.08 671.062 99.3333 670.395 99.84C669.729 100.32 669.249 100.96 668.955 101.76C668.689 102.56 668.529 103.44 668.475 104.4C668.422 105.04 668.422 105.693 668.475 106.36C668.529 107.293 668.689 108.173 668.955 109C669.249 109.8 669.729 110.44 670.395 110.92C671.062 111.4 671.942 111.64 673.035 111.64ZM694.524 116.4C693.137 116.4 691.884 116.133 690.764 115.6C689.644 115.04 688.75 114.307 688.084 113.4C687.444 112.467 687.124 111.427 687.124 110.28C687.124 108.413 687.87 106.933 689.364 105.84C690.884 104.72 692.884 103.973 695.364 103.6L700.844 102.8V101.96C700.844 100.84 700.564 99.9733 700.004 99.36C699.444 98.7467 698.484 98.44 697.124 98.44C696.164 98.44 695.377 98.64 694.764 99.04C694.177 99.4133 693.737 99.92 693.444 100.56C693.23 100.907 692.924 101.08 692.524 101.08H689.364C689.07 101.08 688.844 101 688.684 100.84C688.55 100.68 688.484 100.467 688.484 100.2C688.51 99.7733 688.684 99.2533 689.004 98.64C689.324 98.0267 689.83 97.44 690.524 96.88C691.217 96.2933 692.11 95.8 693.204 95.4C694.297 95 695.617 94.8 697.164 94.8C698.844 94.8 700.257 95.0133 701.404 95.44C702.577 95.84 703.51 96.3867 704.204 97.08C704.897 97.7733 705.404 98.5867 705.724 99.52C706.044 100.453 706.204 101.44 706.204 102.48V115.04C706.204 115.307 706.11 115.533 705.924 115.72C705.737 115.907 705.51 116 705.244 116H702.004C701.71 116 701.47 115.907 701.284 115.72C701.124 115.533 701.044 115.307 701.044 115.04V113.48C700.697 113.987 700.23 114.467 699.644 114.92C699.057 115.347 698.337 115.707 697.484 116C696.657 116.267 695.67 116.4 694.524 116.4ZM695.884 112.6C696.817 112.6 697.657 112.4 698.404 112C699.177 111.6 699.777 110.987 700.204 110.16C700.657 109.307 700.884 108.24 700.884 106.96V106.12L696.884 106.76C695.31 107 694.137 107.387 693.364 107.92C692.59 108.453 692.204 109.107 692.204 109.88C692.204 110.467 692.377 110.973 692.724 111.4C693.097 111.8 693.564 112.107 694.124 112.32C694.684 112.507 695.27 112.6 695.884 112.6ZM712.295 116C712.029 116 711.802 115.907 711.615 115.72C711.429 115.533 711.335 115.307 711.335 115.04V96.16C711.335 95.8933 711.429 95.6667 711.615 95.48C711.802 95.2933 712.029 95.2 712.295 95.2H715.575C715.842 95.2 716.069 95.2933 716.255 95.48C716.442 95.6667 716.535 95.8933 716.535 96.16V97.8C717.229 96.9467 718.109 96.24 719.175 95.68C720.269 95.0933 721.615 94.8 723.215 94.8C724.842 94.8 726.255 95.1733 727.455 95.92C728.655 96.64 729.575 97.6667 730.215 99C730.882 100.333 731.215 101.933 731.215 103.8V115.04C731.215 115.307 731.122 115.533 730.935 115.72C730.749 115.907 730.522 116 730.255 116H726.735C726.469 116 726.242 115.907 726.055 115.72C725.869 115.533 725.775 115.307 725.775 115.04V104.04C725.775 102.493 725.389 101.28 724.615 100.4C723.869 99.52 722.775 99.08 721.335 99.08C719.949 99.08 718.842 99.52 718.015 100.4C717.189 101.28 716.775 102.493 716.775 104.04V115.04C716.775 115.307 716.682 115.533 716.495 115.72C716.309 115.907 716.082 116 715.815 116H712.295ZM737.256 116C736.99 116 736.763 115.907 736.576 115.72C736.39 115.533 736.296 115.307 736.296 115.04V96.16C736.296 95.8933 736.39 95.6667 736.576 95.48C736.763 95.2933 736.99 95.2 737.256 95.2H740.576C740.87 95.2 741.096 95.2933 741.256 95.48C741.443 95.6667 741.536 95.8933 741.536 96.16V115.04C741.536 115.307 741.443 115.533 741.256 115.72C741.096 115.907 740.87 116 740.576 116H737.256ZM737.096 91.76C736.803 91.76 736.563 91.68 736.376 91.52C736.216 91.3333 736.136 91.0933 736.136 90.8V87.92C736.136 87.6533 736.216 87.4267 736.376 87.24C736.563 87.0533 736.803 86.96 737.096 86.96H740.736C741.03 86.96 741.27 87.0533 741.456 87.24C741.643 87.4267 741.736 87.6533 741.736 87.92V90.8C741.736 91.0933 741.643 91.3333 741.456 91.52C741.27 91.68 741.03 91.76 740.736 91.76H737.096ZM746.763 116C746.47 116 746.23 115.907 746.043 115.72C745.883 115.533 745.803 115.307 745.803 115.04V112.76C745.803 112.52 745.856 112.293 745.963 112.08C746.096 111.84 746.23 111.64 746.363 111.48L756.603 99.36H747.083C746.816 99.36 746.59 99.28 746.403 99.12C746.216 98.9333 746.123 98.6933 746.123 98.4V96.16C746.123 95.8933 746.216 95.6667 746.403 95.48C746.59 95.2933 746.816 95.2 747.083 95.2H762.243C762.536 95.2 762.763 95.2933 762.923 95.48C763.11 95.6667 763.203 95.8933 763.203 96.16V98.6C763.203 98.84 763.15 99.0533 763.043 99.24C762.936 99.4267 762.803 99.6267 762.643 99.84L752.643 111.84H763.083C763.35 111.84 763.576 111.933 763.763 112.12C763.95 112.28 764.043 112.507 764.043 112.8V115.04C764.043 115.307 763.95 115.533 763.763 115.72C763.576 115.907 763.35 116 763.083 116H746.763ZM774.133 116.4C772.746 116.4 771.493 116.133 770.373 115.6C769.253 115.04 768.36 114.307 767.693 113.4C767.053 112.467 766.733 111.427 766.733 110.28C766.733 108.413 767.48 106.933 768.973 105.84C770.493 104.72 772.493 103.973 774.973 103.6L780.453 102.8V101.96C780.453 100.84 780.173 99.9733 779.613 99.36C779.053 98.7467 778.093 98.44 776.733 98.44C775.773 98.44 774.986 98.64 774.373 99.04C773.786 99.4133 773.346 99.92 773.053 100.56C772.84 100.907 772.533 101.08 772.133 101.08H768.973C768.68 101.08 768.453 101 768.293 100.84C768.16 100.68 768.093 100.467 768.093 100.2C768.12 99.7733 768.293 99.2533 768.613 98.64C768.933 98.0267 769.44 97.44 770.133 96.88C770.826 96.2933 771.72 95.8 772.813 95.4C773.906 95 775.226 94.8 776.773 94.8C778.453 94.8 779.866 95.0133 781.013 95.44C782.186 95.84 783.12 96.3867 783.813 97.08C784.506 97.7733 785.013 98.5867 785.333 99.52C785.653 100.453 785.813 101.44 785.813 102.48V115.04C785.813 115.307 785.72 115.533 785.533 115.72C785.346 115.907 785.12 116 784.853 116H781.613C781.32 116 781.08 115.907 780.893 115.72C780.733 115.533 780.653 115.307 780.653 115.04V113.48C780.306 113.987 779.84 114.467 779.253 114.92C778.666 115.347 777.946 115.707 777.093 116C776.266 116.267 775.28 116.4 774.133 116.4ZM775.493 112.6C776.426 112.6 777.266 112.4 778.013 112C778.786 111.6 779.386 110.987 779.813 110.16C780.266 109.307 780.493 108.24 780.493 106.96V106.12L776.493 106.76C774.92 107 773.746 107.387 772.973 107.92C772.2 108.453 771.813 109.107 771.813 109.88C771.813 110.467 771.986 110.973 772.333 111.4C772.706 111.8 773.173 112.107 773.733 112.32C774.293 112.507 774.88 112.6 775.493 112.6ZM800.149 116C798.549 116 797.203 115.72 796.109 115.16C795.016 114.6 794.203 113.773 793.669 112.68C793.136 111.56 792.869 110.173 792.869 108.52V99.44H789.709C789.443 99.44 789.216 99.3467 789.029 99.16C788.843 98.9733 788.749 98.7467 788.749 98.48V96.16C788.749 95.8933 788.843 95.6667 789.029 95.48C789.216 95.2933 789.443 95.2 789.709 95.2H792.869V88.56C792.869 88.2933 792.949 88.0667 793.109 87.88C793.296 87.6933 793.536 87.6 793.829 87.6H797.069C797.336 87.6 797.563 87.6933 797.749 87.88C797.936 88.0667 798.029 88.2933 798.029 88.56V95.2H803.029C803.296 95.2 803.523 95.2933 803.709 95.48C803.896 95.6667 803.989 95.8933 803.989 96.16V98.48C803.989 98.7467 803.896 98.9733 803.709 99.16C803.523 99.3467 803.296 99.44 803.029 99.44H798.029V108.12C798.029 109.213 798.216 110.067 798.589 110.68C798.989 111.293 799.669 111.6 800.629 111.6H803.389C803.656 111.6 803.883 111.693 804.069 111.88C804.256 112.067 804.349 112.293 804.349 112.56V115.04C804.349 115.307 804.256 115.533 804.069 115.72C803.883 115.907 803.656 116 803.389 116H800.149ZM808.858 116C808.591 116 808.364 115.907 808.178 115.72C807.991 115.533 807.898 115.307 807.898 115.04V96.16C807.898 95.8933 807.991 95.6667 808.178 95.48C808.364 95.2933 808.591 95.2 808.858 95.2H812.178C812.471 95.2 812.698 95.2933 812.858 95.48C813.044 95.6667 813.138 95.8933 813.138 96.16V115.04C813.138 115.307 813.044 115.533 812.858 115.72C812.698 115.907 812.471 116 812.178 116H808.858ZM808.698 91.76C808.404 91.76 808.164 91.68 807.978 91.52C807.818 91.3333 807.738 91.0933 807.738 90.8V87.92C807.738 87.6533 807.818 87.4267 807.978 87.24C808.164 87.0533 808.404 86.96 808.698 86.96H812.338C812.631 86.96 812.871 87.0533 813.058 87.24C813.244 87.4267 813.338 87.6533 813.338 87.92V90.8C813.338 91.0933 813.244 91.3333 813.058 91.52C812.871 91.68 812.631 91.76 812.338 91.76H808.698ZM827.645 116.4C825.511 116.4 823.711 116.027 822.245 115.28C820.805 114.533 819.698 113.48 818.925 112.12C818.178 110.76 817.751 109.173 817.645 107.36C817.618 106.88 817.605 106.293 817.605 105.6C817.605 104.907 817.618 104.32 817.645 103.84C817.751 102 818.191 100.413 818.965 99.08C819.765 97.72 820.885 96.6667 822.325 95.92C823.791 95.1733 825.565 94.8 827.645 94.8C829.725 94.8 831.485 95.1733 832.925 95.92C834.391 96.6667 835.511 97.72 836.285 99.08C837.085 100.413 837.538 102 837.645 103.84C837.671 104.32 837.685 104.907 837.685 105.6C837.685 106.293 837.671 106.88 837.645 107.36C837.538 109.173 837.098 110.76 836.325 112.12C835.578 113.48 834.471 114.533 833.005 115.28C831.565 116.027 829.778 116.4 827.645 116.4ZM827.645 112.44C829.058 112.44 830.151 112 830.925 111.12C831.698 110.213 832.125 108.893 832.205 107.16C832.231 106.76 832.245 106.24 832.245 105.6C832.245 104.96 832.231 104.44 832.205 104.04C832.125 102.333 831.698 101.027 830.925 100.12C830.151 99.2133 829.058 98.76 827.645 98.76C826.231 98.76 825.138 99.2133 824.365 100.12C823.591 101.027 823.165 102.333 823.085 104.04C823.058 104.44 823.045 104.96 823.045 105.6C823.045 106.24 823.058 106.76 823.085 107.16C823.165 108.893 823.591 110.213 824.365 111.12C825.138 112 826.231 112.44 827.645 112.44ZM843.077 116C842.81 116 842.583 115.907 842.397 115.72C842.21 115.533 842.117 115.307 842.117 115.04V96.16C842.117 95.8933 842.21 95.6667 842.397 95.48C842.583 95.2933 842.81 95.2 843.077 95.2H846.357C846.623 95.2 846.85 95.2933 847.037 95.48C847.223 95.6667 847.317 95.8933 847.317 96.16V97.8C848.01 96.9467 848.89 96.24 849.957 95.68C851.05 95.0933 852.397 94.8 853.997 94.8C855.623 94.8 857.037 95.1733 858.237 95.92C859.437 96.64 860.357 97.6667 860.997 99C861.663 100.333 861.997 101.933 861.997 103.8V115.04C861.997 115.307 861.903 115.533 861.717 115.72C861.53 115.907 861.303 116 861.037 116H857.517C857.25 116 857.023 115.907 856.837 115.72C856.65 115.533 856.557 115.307 856.557 115.04V104.04C856.557 102.493 856.17 101.28 855.397 100.4C854.65 99.52 853.557 99.08 852.117 99.08C850.73 99.08 849.623 99.52 848.797 100.4C847.97 101.28 847.557 102.493 847.557 104.04V115.04C847.557 115.307 847.463 115.533 847.277 115.72C847.09 115.907 846.863 116 846.597 116H843.077Z" fill="black"/>
</g>
</g>
<defs>
<filter id="filter0_d_0_1" x="460.12" y="86.96" width="405.877" height="45.84" filterUnits="userSpaceOnUse" color-interpolation-filters="sRGB">
<feFlood flood-opacity="0" result="BackgroundImageFix"/>
<feColorMatrix in="SourceAlpha" type="matrix" values="0 0 0 0 0 0 0 0 0 0 0 0 0 0 0 0 0 0 127 0" result="hardAlpha"/>
<feOffset dy="4"/>
<feGaussianBlur stdDeviation="2"/>
<feComposite in2="hardAlpha" operator="out"/>
<feColorMatrix type="matrix" values="0 0 0 0 0 0 0 0 0 0 0 0 0 0 0 0 0 0 0.25 0"/>
<feBlend mode="normal" in2="BackgroundImageFix" result="effect1_dropShadow_0_1"/>
<feBlend mode="normal" in="SourceGraphic" in2="effect1_dropShadow_0_1" result="shape"/>
</filter>
<clipPath id="clip0_0_1">
<rect width="1280" height="832" fill="white"/>
</clipPath>
</defs>
</svg>
